<svg width="14" height="14" viewBox="0 0 14 14" fill="none" xmlns="http://www.w3.org/2000/svg">
<path d="M9.92578 3.41797C9.48828 3.01693 8.99609 2.71615 8.44922 2.51562C7.92057 2.29688 7.36458 2.1875 6.78125 2.1875C5.72396 2.1875 4.77604 2.51562 3.9375 3.17188C3.11719 3.8099 2.57943 4.63932 2.32422 5.66016C2.30599 5.73307 2.26953 5.79688 2.21484 5.85156C2.16016 5.88802 2.08724 5.90625 1.99609 5.90625H0.4375C0.328125 5.90625 0.236979 5.86979 0.164062 5.79688C0.109375 5.70573 0.0911458 5.61458 0.109375 5.52344C0.309896 4.48438 0.729167 3.54557 1.36719 2.70703C2.00521 1.86849 2.78906 1.21224 3.71875 0.738281C4.66667 0.246094 5.6875 0 6.78125 0C7.67448 0 8.52214 0.164062 9.32422 0.492188C10.1263 0.820312 10.8372 1.28516 11.457 1.88672L12.4414 0.902344C12.569 0.77474 12.724 0.710938 12.9062 0.710938C13.0885 0.710938 13.2435 0.77474 13.3711 0.902344C13.4987 1.02995 13.5625 1.1849 13.5625 1.36719V5.03125C13.5625 5.21354 13.4987 5.36849 13.3711 5.49609C13.2435 5.6237 13.0885 5.6875 12.9062 5.6875H9.24219C9.0599 5.6875 8.90495 5.6237 8.77734 5.49609C8.64974 5.36849 8.58594 5.21354 8.58594 5.03125C8.58594 4.84896 8.64974 4.69401 8.77734 4.56641L9.92578 3.41797ZM0.65625 7.875H4.32031C4.5026 7.875 4.65755 7.9388 4.78516 8.06641C4.91276 8.19401 4.97656 8.34896 4.97656 8.53125C4.97656 8.71354 4.91276 8.86849 4.78516 8.99609L3.63672 10.1445C4.07422 10.5456 4.55729 10.8555 5.08594 11.0742C5.63281 11.2747 6.19792 11.375 6.78125 11.375C7.83854 11.375 8.77734 11.056 9.59766 10.418C10.4362 9.76172 10.9831 8.92318 11.2383 7.90234C11.2565 7.82943 11.293 7.77474 11.3477 7.73828C11.4023 7.68359 11.4753 7.65625 11.5664 7.65625H13.125C13.2344 7.65625 13.3164 7.70182 13.3711 7.79297C13.444 7.86589 13.4714 7.94792 13.4531 8.03906C13.2526 9.07812 12.8333 10.0169 12.1953 10.8555C11.5573 11.694 10.7643 12.3503 9.81641 12.8242C8.88672 13.3164 7.875 13.5625 6.78125 13.5625C5.88802 13.5625 5.04036 13.3984 4.23828 13.0703C3.4362 12.7422 2.72526 12.2773 2.10547 11.6758L1.12109 12.6602C0.99349 12.7878 0.838542 12.8516 0.65625 12.8516C0.473958 12.8516 0.31901 12.7878 0.191406 12.6602C0.0638021 12.5326 0 12.3776 0 12.1953V8.53125C0 8.34896 0.0638021 8.19401 0.191406 8.06641C0.31901 7.9388 0.473958 7.875 0.65625 7.875Z" fill="url(#paint0_linear_0_1472)"/>
<defs>
<linearGradient id="paint0_linear_0_1472" x1="-0.21875" y1="-0.96875" x2="-0.21875" y2="15.0312" gradientUnits="userSpaceOnUse">
<stop stop-color="#9E8FFF"/>
<stop offset="1" stop-color="#EBCBFF"/>
</linearGradient>
</defs>
</svg>
